<?xml version="1.0" standalone="no"?>
<!DOCTYPE svg PUBLIC "-//W3C//DTD SVG 1.1//EN" "http://www.w3.org/Graphics/SVG/1.1/DTD/svg11.dtd" >
<svg xmlns="http://www.w3.org/2000/svg">
<metadata>Generated by IcoMoon</metadata>
<defs>
<font id="MS3000" horiz-adv-x="1024">
<font-face units-per-em="1024" ascent="960" descent="-64" />
<missing-glyph horiz-adv-x="1024" />
<glyph unicode="&#x20;" horiz-adv-x="512" d="" />
<glyph unicode="&#xe900;" glyph-name="brightness" d="M528.794 120.832c-81.101 0-162.202 30.925-223.846 92.57-123.494 123.494-123.494 324.198 0 447.693s324.198 123.494 447.693 0 123.494-324.198 0-447.693c-61.645-61.645-142.746-92.57-223.846-92.57zM528.794 712.704c-70.656 0-141.107-26.829-194.97-80.691-107.52-107.52-107.52-282.214 0-389.734s282.214-107.52 389.734 0c107.52 107.52 107.52 282.214 0 389.734-53.453 53.862-124.109 80.691-194.765 80.691zM437.862 527.974l123.699 33.178 91.136-91.341-32.563-122.266-126.157-34.816-89.907 89.907zM755.712 347.546c-11.878-30.106-29.491-57.754-53.862-82.125-29.082-29.082-63.283-48.742-100.352-60.006l-77.21 77.005 231.424 65.126zM767.795 388.506l-106.701-29.696 61.645 226.509c43.622-57.344 58.573-129.434 45.056-196.813zM693.862 616.858l-28.672-105.677-167.936 167.731c69.222 9.011 141.722-11.674 196.608-62.054zM455.27 669.696l77.824-77.619-228.966-60.211c11.878 28.262 29.286 54.886 52.429 77.824 28.467 28.672 62.464 48.742 98.714 60.006zM291.021 490.906l105.267 27.648-34.611-127.59 0.41-0.41-27.443-101.376c-44.646 58.368-59.187 132.915-43.622 201.728zM363.52 257.229l28.262 103.629 166.093-166.093c-67.174-6.758-140.083 12.698-194.355 62.464z" />
<glyph unicode="&#xe901;" glyph-name="brushes" d="M579.379 385.229v0c18.432 18.432 38.912 28.262 11.264 57.958l-249.446 267.469c-37.478 37.478-87.245 48.128-111.206 24.166v0c-24.166-24.166-13.312-73.933 23.962-111.206l267.469-249.651c29.696-27.648 39.526-7.168 57.958 11.264zM824.32 242.278c0-96.87-91.341-144.179-129.024-159.539-7.782-3.072-16.384 2.048-17.203 10.24-3.482 30.515 26.214 98.304-63.283 133.734-77.414 30.72-20.685 155.443 74.342 155.443 59.597 0.205 135.168-38.912 135.168-139.878z" />
<glyph unicode="&#xe902;" glyph-name="close" d="M933.412 699.308l-263.28-264.88 263.28-263.308c11.020-10.992 11.020-28.828 0-39.848l-119.544-119.516c-10.964-11.020-28.8-11.020-39.82 0l-262.848 262.848-261.276-262.848c-10.992-11.020-28.828-11.020-39.848 0l-119.516 119.516c-10.992 11.020-10.992 28.856 0 39.848l261.276 262.848-261.247 261.247c-10.992 10.992-10.992 28.828 0 39.848l119.516 119.516c10.992 11.020 28.828 11.020 39.848 0l260.788-260.788 263.336 264.88c11.020 11.020 28.856 11.020 39.82 0l119.544-119.516c10.964-11.020 10.964-28.856-0.028-39.848z" />
<glyph unicode="&#xe903;" glyph-name="colors" d="M901.357 434.923c0-215.033-174.324-389.357-389.357-389.357s-389.357 174.324-389.357 389.357c0 215.033 174.324 389.357 389.357 389.357s389.357-174.324 389.357-389.357z" />
<glyph unicode="&#xe904;" glyph-name="ok" d="M864 819.2l-480-480-224 224-160-160 384-384 640 640z" />
<glyph unicode="&#xe905;" glyph-name="download" d="M512 375.603l-139.674 139.674c-11.469 11.469-11.469 29.901 0 41.37v0c11.469 11.469 29.901 11.469 41.37 0l139.674-139.674-41.37-41.37zM470.63 416.973l139.674 139.674c11.469 11.469 29.901 11.469 41.37 0v0c11.469-11.469 11.469-29.901 0-41.37l-139.674-139.674-41.37 41.37zM541.286 636.928v-232.038h-58.368v232.038c0 16.179 13.107 29.286 29.286 29.286v0c15.974 0 29.082-13.107 29.082-29.286zM697.754 387.482v-82.33h-371.507v82.33c0 16.384-13.312 29.696-29.696 29.696v0c-16.384 0-29.696-13.312-29.696-29.696v-107.315c0-19.456 15.974-35.226 35.43-35.021l23.552 0.205h396.288c19.251 0 35.021 15.77 35.021 35.021v106.906c0 16.384-13.312 29.696-29.696 29.696v0c-16.384 0.205-29.696-13.107-29.696-29.491z" />
<glyph unicode="&#xe906;" glyph-name="effects" d="M525.6 783.108l94.738-191.974c2.268-4.532 6.571-7.478 11.332-8.386l211.691-30.825c12.464-1.814 17.454-17 8.386-25.839l-153.217-149.363c-3.625-3.4-5.214-8.614-4.307-13.371l36.264-211.013c2.039-12.464-10.878-21.757-21.986-16.093l-189.481 99.499c-4.307 2.268-9.746 2.268-14.054 0l-189.481-99.499c-11.107-5.893-24.025 3.625-21.986 16.093l36.264 211.013c0.907 4.986-0.678 9.971-4.307 13.371l-153.442 149.588c-9.068 8.839-4.078 24.025 8.386 25.839l211.691 30.825c4.986 0.678 9.293 3.854 11.332 8.386l94.967 191.745c5.668 11.107 21.532 11.107 27.2 0z" />
<glyph unicode="&#xe907;" glyph-name="fonts" d="M763.085 207.258l-181.862 467.558c-0.205 0.41-0.41 1.024-0.819 1.434-8.192 25.6-32.358 44.237-60.826 44.237-27.034 0-49.971-16.794-59.597-40.55-0.41-1.024-1.024-2.253-1.434-3.072l-197.427-467.149c-8.806-20.685 1.024-44.442 21.709-53.043l5.12-2.253c20.48-8.602 44.237 1.229 53.043 21.709l74.547 176.538h195.994c1.229 0 2.253 0 3.482 0.205l67.789-177.357c7.987-20.685 31.539-31.13 52.429-22.938l5.12 1.843c20.89 8.602 31.13 31.949 22.733 52.838zM448.717 431.104l68.198 161.587c1.024 0 1.638 0 2.662 0 0.205 0 0.41 0 1.024 0l63.488-161.587h-135.373z" />
<glyph unicode="&#xe908;" glyph-name="images" d="M829.44 583.27v104.243c0 18.432-15.36 33.997-33.587 33.792l-22.528 0.614h-529.613c-18.227 0-34.816-16.384-34.816-34.611v-460.39c0-18.432 15.974-33.587 34.406-33.382h553.165c18.227 0 33.178 15.36 33.178 33.587v353.075c-0.205 1.229-0.205 2.048-0.205 3.072zM266.24 250.88v413.696h505.856v-330.342c0-1.229 0-2.048 0-3.072v-80.282h-505.856zM645.12 546.202l96.256-89.088v-173.466h-440.32l74.957 173.67 129.229-68.198 139.878 157.082zM349.594 567.501c0 22.528 18.227 40.755 40.755 40.755s40.755-18.227 40.755-40.755c0-22.528-18.227-40.755-40.755-40.755s-40.755 18.432-40.755 40.755z" />
<glyph unicode="&#xe909;" glyph-name="info" d="M571.597 533.299v-372.326c0-32.973-26.624-59.597-59.597-59.597v0c-32.973 0-59.597 26.624-59.597 59.597v372.326c0 32.973 26.624 59.597 59.597 59.597v0c32.973 0 59.597-26.829 59.597-59.597zM571.597 709.427v0c0-32.973-26.624-59.597-59.597-59.597v0c-32.973 0-59.597 26.624-59.597 59.597v0c0 32.973 26.624 59.597 59.597 59.597v0c32.973 0 59.597-26.624 59.597-59.597z" />
<glyph unicode="&#xe90a;" d="M819.814 434.79c0-162.084-131.395-293.478-293.478-293.478s-293.478 131.395-293.478 293.478c0 162.084 131.395 293.478 293.478 293.478s293.478-131.395 293.478-293.478z" />
<glyph unicode="&#xe90b;" d="M318.669 227.123c-114.688 114.688-114.688 300.442 0 415.13s300.442 114.688 415.13 0l-415.13-415.13z" />
<glyph unicode="&#xe90c;" d="M526.746 120.627c-174.49 0-316.621 141.926-316.621 316.621s142.131 316.621 316.621 316.621 316.621-142.131 316.621-316.621-141.926-316.621-316.621-316.621zM526.746 712.909c-151.962 0-275.661-123.699-275.661-275.661s123.699-275.661 275.661-275.661 275.661 123.699 275.661 275.661-123.699 275.661-275.661 275.661z" />
<glyph unicode="&#xe90d;" glyph-name="minus" d="M704.512 474.112h-385.024c-21.299 0-38.912-17.408-38.912-38.707v-0.205c0-21.299 17.613-38.912 38.912-38.912h385.024c21.299 0 38.912 17.408 38.912 38.707v0.205c0 21.299-17.613 38.912-38.912 38.912z" />
<glyph unicode="&#xe90e;" glyph-name="plus" d="M704.512 474.112h-153.6v153.6c0 21.299-17.613 38.502-38.912 38.502s-38.912-17.203-38.912-38.502v-153.6h-153.6c-21.299 0-38.912-17.408-38.912-38.707v-0.205c0-21.299 17.613-38.912 38.912-38.912h153.6v-153.6c0-21.299 17.613-38.502 38.912-38.502s38.912 17.203 38.912 38.502v153.6h153.6c21.299 0 38.912 17.408 38.912 38.707v0.205c0 21.299-17.613 38.912-38.912 38.912z" />
<glyph unicode="&#xe90f;" glyph-name="settings" d="M573.514 772.308l44.414-112.369 115.478 35.309c37.308-46.857 39.308-49.3 76.616-96.158l-60.183-104.82 99.711-67.955c-13.324-58.406-13.99-61.514-27.314-119.92l-119.476-18.21 8.882-120.586c-53.964-25.984-56.851-27.314-110.815-53.298l-88.83 81.945-88.607-81.945c-53.964 25.984-56.851 27.314-110.815 53.298l8.882 120.586-119.476 18.21c-13.324 58.406-13.99 61.514-27.314 119.92l99.711 68.178-60.183 104.82c37.308 46.857 39.308 49.3 76.616 96.158l115.478-35.309 44.414 112.369c59.737-0.223 62.846-0.223 122.806-0.223zM512 281.304c87.941 0 159.228 71.285 159.228 159.228s-71.285 159.228-159.228 159.228-159.228-71.285-159.228-159.228 71.285-159.228 159.228-159.228z" />
<glyph unicode="&#xe910;" glyph-name="shapes" d="M819.61 762.061v-423.322h-184.525c0 131.686-107.11 239.002-239.002 239.002v184.32h423.526zM372.531 530.227c-118.784 0-215.245-96.461-215.245-215.245s96.461-215.245 215.245-215.245 215.245 96.461 215.245 215.245-96.461 215.245-215.245 215.245z" />
<glyph unicode="&#xe911;" glyph-name="trash" d="M655.36 575.147v-372.053h-286.72v372.053c0 13.653-13.653 27.307-27.307 27.307v0c-13.653 0-27.307-13.653-27.307-27.307v-392.533c0-17.067 13.653-34.133 34.133-30.72h334.507c17.067 0 30.72 13.653 30.72 30.72v392.533c0 13.653-13.653 27.307-27.307 27.307v0c-17.067 3.413-30.72-10.24-30.72-27.307zM341.333 554.667h341.333c13.653 0 27.307 13.653 27.307 27.307v0c0 13.653-13.653 27.307-27.307 27.307h-341.333c-13.653 0-27.307-13.653-27.307-27.307v0c0-13.653 10.24-27.307 27.307-27.307zM368.64 182.613v392.533c0 13.653-13.653 27.307-27.307 27.307v0c-13.653 0-27.307-13.653-27.307-27.307v-395.947c0-13.653 13.653-27.307 27.307-27.307v0c13.653 3.413 27.307 17.067 27.307 30.72zM597.333 182.613v392.533c0 13.653-13.653 27.307-27.307 27.307v0c-13.653 0-27.307-13.653-27.307-27.307v-395.947c0-13.653 13.653-27.307 27.307-27.307v0c13.653 3.413 27.307 17.067 27.307 30.72zM709.973 182.613v392.533c0 13.653-13.653 27.307-27.307 27.307v0c-13.653 0-27.307-13.653-27.307-27.307v-395.947c0-13.653 13.653-27.307 27.307-27.307v0c17.067 3.413 27.307 17.067 27.307 30.72zM481.28 182.613v392.533c0 13.653-13.653 27.307-27.307 27.307v0c-13.653 0-27.307-13.653-27.307-27.307v-395.947c0-13.653 13.653-27.307 27.307-27.307v0c17.067 3.413 27.307 17.067 27.307 30.72zM341.333 663.893h341.333c13.653 0 27.307 13.653 27.307 27.307v0c0 13.653-13.653 27.307-27.307 27.307h-341.333c-13.653 0-27.307-13.653-27.307-27.307v0c0-17.067 10.24-27.307 27.307-27.307zM491.52 663.893h40.96c20.48 0 37.547 17.067 37.547 37.547v34.133c0 20.48-17.067 37.547-37.547 37.547h-40.96c-20.48 0-37.547-17.067-37.547-37.547v-37.547c0-20.48 17.067-34.133 37.547-34.133z" />
<glyph unicode="&#xe912;" glyph-name="upload" d="M339.968 515.277c12.288-14.541 37.478-14.541 52.019 0l87.245 87.654v-189.44c0-20.48 14.336-37.069 34.816-37.069s34.816 16.589 34.816 37.069v189.44l88.883-87.654c14.541-14.541 38.502-14.541 52.838 0v0c14.541 14.541 14.746 37.888 0.205 52.224l-176.742 176.947-52.224-51.2-123.29-125.133c-14.541-14.541-14.95-38.093 1.434-52.634v-0.205zM787.456 429.056v0c-20.89 0-37.888-16.794-37.888-37.683v-105.677h-471.040v105.677c0 20.89-16.998 37.683-37.888 37.683v0c-20.89 0-37.888-16.794-37.888-37.683v-135.782c0-24.781 20.48-44.646 45.261-44.237l30.106 0.614h502.17c24.576 0 45.056 19.661 45.056 44.032v135.373c0 20.89-16.998 37.683-37.888 37.683z" />
<glyph unicode="&#xe913;" glyph-name="loading" horiz-adv-x="987" d="M764.723 473.777c11.876-81.718-13.062-167.782-76.812-230.594-94.188-92.938-239.5-104.376-346.376-34.562l74.876 73-275.19 38.376 38.406-268.75 84.030 80.5c150.906-111.25 364.938-100.75 502.064 34.562 79.5 78.438 115.75 182.562 111.25 285.312l-112.25 22.156zM298.721 627.183c94.156 92.938 239.438 104.438 346.312 34.562l-75-72.968 275.188-38.406-38.376 268.876-83.938-80.688c-150.938 111.344-364.906 100.718-502.062-34.562-79.5-78.406-115.718-182.532-111.25-285.25l112.25-22.126c-11.876 81.75 13.126 167.718 76.876 230.562z" />
</font>
</defs>
</svg>
