<?xml version="1.0" encoding="utf-8"?>
<!-- Generated by IcoMoon.io -->
<!DOCTYPE svg PUBLIC "-//W3C//DTD SVG 1.1//EN" "http://www.w3.org/Graphics/SVG/1.1/DTD/svg11.dtd">
<svg version="1.1" xmlns="http://www.w3.org/2000/svg" xmlns:xlink="http://www.w3.org/1999/xlink" width="512" height="512" viewBox="0 0 512 512">
<g id="icomoon-ignore">
</g>
<path d="M491.536 108.384l-147.152 148.048 147.152 147.168c6.16 6.144 6.16 16.112 0 22.272l-66.816 66.8c-6.128 6.16-16.096 6.16-22.256 0l-146.912-146.912-146.032 146.912c-6.144 6.16-16.112 6.16-22.272 0l-66.8-66.8c-6.144-6.16-6.144-16.128 0-22.272l146.032-146.912-146.016-146.016c-6.144-6.144-6.144-16.112 0-22.272l66.8-66.8c6.144-6.16 16.112-6.16 22.272 0l145.76 145.76 147.184-148.048c6.16-6.16 16.128-6.16 22.256 0l66.816 66.8c6.128 6.16 6.128 16.128-0.016 22.272z"></path>
</svg>
